<?xml version="1.0" encoding="UTF-8"?>
<!DOCTYPE svg PUBLIC "-//W3C//DTD SVG 1.1//EN" "http://www.w3.org/Graphics/SVG/1.1/DTD/svg11.dtd">
<!-- Creator: CorelDRAW X7 -->
<svg xmlns="http://www.w3.org/2000/svg" xml:space="preserve" width="500px" height="469px" version="1.1" style="shape-rendering:geometricPrecision; text-rendering:geometricPrecision; image-rendering:optimizeQuality; fill-rule:evenodd; clip-rule:evenodd"
viewBox="0 0 500 469"
 xmlns:xlink="http://www.w3.org/1999/xlink">
 <defs>
  <style type="text/css">
   <![CDATA[
    .fil0 {fill:#07314A}
    .fil2 {fill:#07314A;fill-rule:nonzero}
    .fil3 {fill:#D49100;fill-rule:nonzero}
    .fil1 {fill:#E09704;fill-opacity:0.501961}
   ]]>
  </style>
 </defs>
 <g id="Layer_x0020_1">
  <metadata id="CorelCorpID_0Corel-Layer"/>
  <g id="_828473504">
   <path class="fil0" d="M462 206c-75,44 -150,89 -225,133 -30,22 -62,10 -74,-18l1 -51 38 1 0 -39 -39 0 1 -38 36 -1 1 -39 -36 0 0 -36 35 0 1 -41 -37 1 0 -36c-1,-24 21,-52 59,-38 77,44 153,88 230,132 28,13 33,51 9,70l0 0z"/>
   <polygon class="fil0" points="87,117 124,117 124,156 87,156 "/>
   <polygon class="fil0" points="26,113 55,113 55,144 26,144 "/>
   <polygon class="fil0" points="124,156 162,156 162,192 124,192 "/>
   <polygon class="fil0" points="41,158 71,158 71,189 41,189 "/>
   <polygon class="fil0" points="51,220 71,220 71,241 51,241 "/>
   <polygon class="fil0" points="138,244 164,244 164,270 138,270 "/>
   <polygon class="fil0" points="71,93 91,93 91,114 71,114 "/>
   <polygon class="fil0" points="47,63 62,63 62,78 47,78 "/>
   <polygon class="fil0" points="92,54 102,54 102,64 92,64 "/>
   <polygon class="fil0" points="138,83 164,83 164,110 138,110 "/>
   <path class="fil1" d="M472 229c-1,4 -3,6 -5,8 -60,35 -119,70 -179,105 -23,18 -49,8 -58,-14 1,-103 0,-126 0,-222 0,-19 17,-41 47,-30 61,35 122,70 183,106 25,11 22,38 12,47l0 0z"/>
   <path class="fil1" d="M467 237c-60,35 -119,70 -179,105 -23,18 -49,8 -58,-14 1,-103 0,-126 0,-222 0,-19 17,-41 47,-30 61,35 122,70 183,106 22,10 26,39 7,55l0 0z"/>
   <g id="_910161744">
    <path class="fil2" d="M0 402l19 0c5,0 8,0 10,1 3,1 6,2 8,4 2,3 4,6 5,9 1,3 2,7 2,12 0,5 -1,8 -2,11 -1,4 -3,7 -6,10 -1,1 -4,3 -7,4 -2,0 -5,1 -9,1l-20 0 0 -52 0 0zm11 8l0 35 7 0c3,0 5,0 7,-1 1,0 3,-1 4,-2 1,-1 2,-2 3,-5 0,-2 1,-5 1,-9 0,-4 -1,-7 -1,-10 -1,-2 -2,-3 -3,-5 -2,-1 -3,-2 -5,-2 -2,0 -4,-1 -9,-1l-4 0 0 0z"/>
    <path id="_1" class="fil2" d="M53 411l0 -9 10 0 0 9 -10 0zm0 43l0 -38 10 0 0 38 -10 0z"/>
    <path id="_2" class="fil2" d="M73 456l11 2c1,1 1,2 2,2 1,1 2,1 4,1 3,0 5,0 6,-1 1,0 2,-1 2,-2 0,-1 1,-3 1,-5l0 -5c-3,4 -7,6 -12,6 -5,0 -9,-2 -12,-7 -2,-3 -3,-7 -3,-12 0,-7 1,-11 4,-15 3,-3 7,-5 12,-5 4,0 8,2 11,6l0 -5 10 0 0 34c0,4 -1,8 -2,10 0,2 -1,4 -3,5 -1,1 -3,2 -5,3 -2,1 -5,1 -8,1 -7,0 -11,-1 -14,-3 -3,-2 -4,-5 -4,-9 0,0 0,0 0,-1l0 0zm9 -22c0,4 1,7 2,9 2,2 4,3 6,3 2,0 4,-1 6,-3 2,-2 3,-5 3,-9 0,-4 -1,-6 -3,-8 -1,-2 -3,-3 -6,-3 -2,0 -4,1 -6,3 -1,1 -2,4 -2,8z"/>
    <path id="_3" class="fil2" d="M119 411l0 -9 10 0 0 9 -10 0zm0 43l0 -38 10 0 0 38 -10 0z"/>
    <path id="_4" class="fil2" d="M157 416l0 8 -7 0 0 15c0,3 0,5 0,6 1,0 1,1 1,1 1,0 1,0 2,0 1,0 2,0 4,-1l1 8c-2,1 -5,2 -8,2 -2,0 -3,-1 -5,-1 -1,-1 -2,-2 -3,-3 -1,-1 -1,-2 -1,-3 -1,-2 -1,-4 -1,-8l0 -16 -4 0 0 -8 4 0 0 -8 10 -5 0 13 7 0 0 0z"/>
    <path id="_5" class="fil2" d="M172 428l-9 -2c1,-4 3,-6 5,-8 3,-2 6,-3 11,-3 5,0 8,1 10,2 3,1 4,2 5,4 1,1 1,4 1,9l0 11c0,4 0,6 1,8 0,1 1,3 1,5l-9 0c-1,-1 -1,-2 -1,-3 -1,-1 -1,-1 -1,-1 -2,1 -3,3 -5,3 -2,1 -4,2 -6,2 -4,0 -7,-1 -10,-3 -2,-3 -3,-5 -3,-8 0,-3 1,-4 2,-6 1,-2 2,-3 4,-4 2,-1 4,-2 8,-2 4,-1 8,-2 9,-3l0 -1c0,-2 0,-3 -1,-4 -1,-1 -3,-1 -5,-1 -2,0 -4,0 -5,1 -1,1 -1,2 -2,4l0 0zm13 8c-1,0 -3,1 -6,1 -2,1 -4,1 -5,2 -1,1 -2,2 -2,4 0,1 1,2 2,3 1,1 2,2 4,2 1,0 3,-1 5,-2 1,-1 2,-2 2,-3 0,-1 0,-3 0,-5l0 -2z"/>
    <polygon id="_6" class="fil2" points="206,454 206,402 216,402 216,454 "/>
    <path class="fil3" d="M247 402l21 0c4,0 7,0 9,0 2,0 4,1 5,2 2,1 3,3 4,5 1,1 2,3 2,6 0,2 -1,4 -2,6 -1,2 -3,4 -5,5 3,1 5,3 7,5 2,2 3,5 3,8 0,2 -1,4 -2,7 -1,2 -3,4 -5,5 -2,1 -4,2 -7,2 -1,1 -6,1 -12,1l-18 0 0 -52 0 0zm10 8l0 12 7 0c4,0 7,0 8,0 2,0 3,-1 4,-2 1,-1 2,-2 2,-4 0,-1 -1,-3 -2,-4 0,-1 -2,-1 -4,-2 -1,0 -4,0 -9,0l-6 0zm0 21l0 14 10 0c4,0 6,0 7,0 2,-1 3,-1 4,-2 1,-2 2,-3 2,-5 0,-1 -1,-3 -1,-4 -1,-1 -2,-2 -4,-2 -1,-1 -4,-1 -9,-1l-9 0 0 0z"/>
    <path id="_1_0" class="fil3" d="M333 435l11 3c-2,5 -5,10 -8,12 -4,3 -8,5 -14,5 -7,0 -13,-3 -17,-7 -5,-5 -7,-12 -7,-20 0,-9 2,-15 7,-20 4,-5 10,-7 18,-7 6,0 11,2 15,5 2,3 4,6 5,10l-10 2c-1,-2 -2,-4 -4,-6 -2,-2 -4,-2 -7,-2 -4,0 -7,1 -9,4 -3,3 -4,7 -4,13 0,7 1,12 4,14 2,3 5,5 9,5 3,0 5,-1 7,-3 2,-2 4,-5 4,-8l0 0z"/>
    <path id="_2_1" class="fil3" d="M361 428l-9 -2c1,-4 2,-6 5,-8 2,-2 6,-3 11,-3 4,0 8,1 10,2 2,1 4,2 4,4 1,1 2,4 2,9l0 11c0,4 0,6 0,8 0,1 1,3 2,5l-10 0c0,-1 -1,-2 -1,-3 0,-1 0,-1 0,-1 -2,1 -4,3 -6,3 -2,1 -4,2 -6,2 -4,0 -7,-1 -9,-3 -2,-3 -3,-5 -3,-8 0,-3 0,-4 1,-6 1,-2 2,-3 4,-4 2,-1 5,-2 8,-2 5,-1 8,-2 10,-3l0 -1c0,-2 0,-3 -1,-4 -1,-1 -3,-1 -6,-1 -2,0 -3,0 -4,1 -1,1 -2,2 -2,4l0 0zm13 8c-1,0 -3,1 -6,1 -3,1 -5,1 -6,2 -1,1 -1,2 -1,4 0,1 0,2 1,3 1,1 2,2 4,2 2,0 4,-1 5,-2 1,-1 2,-2 3,-3 0,-1 0,-3 0,-5l0 -2z"/>
    <path id="_3_2" class="fil3" d="M404 454l-10 0 0 -38 9 0 0 5c2,-2 3,-4 4,-5 2,0 3,-1 5,-1 2,0 4,1 6,2l-3 9c-2,-1 -3,-2 -5,-2 -1,0 -2,1 -3,1 -1,1 -2,2 -2,4 -1,2 -1,7 -1,13l0 12 0 0z"/>
    <path id="_4_3" class="fil3" d="M458 454l-9 0 0 -6c-2,2 -4,4 -6,5 -2,1 -4,2 -6,2 -5,0 -8,-2 -11,-6 -4,-3 -5,-8 -5,-14 0,-7 1,-11 4,-15 3,-3 7,-5 12,-5 4,0 8,2 11,5l0 -18 10 0 0 52 0 0zm-27 -20c0,4 1,7 2,9 1,3 4,4 7,4 2,0 4,-1 5,-3 2,-2 3,-5 3,-9 0,-4 -1,-7 -2,-9 -2,-2 -4,-3 -6,-3 -3,0 -5,1 -6,3 -2,2 -3,4 -3,8l0 0z"/>
    <path id="_5_4" class="fil3" d="M465 443l10 -1c0,2 1,3 2,4 2,1 3,2 6,2 2,0 4,-1 6,-2 1,-1 1,-1 1,-3 0,0 0,-1 -1,-1 0,-1 -1,-1 -3,-2 -8,-2 -13,-3 -15,-5 -3,-2 -5,-5 -5,-8 0,-3 1,-6 4,-8 3,-3 7,-4 12,-4 5,0 9,1 11,3 3,1 5,4 6,7l-10 2c0,-2 -1,-3 -2,-3 -1,-1 -3,-2 -5,-2 -3,0 -4,1 -6,1 0,1 -1,2 -1,3 0,0 1,1 1,1 1,1 4,2 10,3 5,1 9,3 11,5 2,1 3,4 3,7 0,4 -1,7 -4,9 -3,2 -8,4 -13,4 -5,0 -9,-1 -12,-3 -3,-2 -5,-5 -6,-9l0 0z"/>
   </g>
  </g>
 </g>
</svg>
